<?xml version="1.0" encoding="utf-8"?>
<!-- Generator: Adobe Illustrator 19.1.0, SVG Export Plug-In . SVG Version: 6.00 Build 0)  -->
<svg version="1.1" id="Lager_1" xmlns="http://www.w3.org/2000/svg" xmlns:xlink="http://www.w3.org/1999/xlink" x="0px" y="0px"
	 viewBox="0 0 595.3 841.9" style="enable-background:new 0 0 595.3 841.9;" xml:space="preserve">
<style type="text/css">
	.st0{fill:#DDDDF0;}
</style>
<g>
	<path class="st0" d="M251.4,422.9h-3.9v-2.6h8.2c1.4,0,2.2-0.4,2.2-1.3c0-0.9-0.7-1.3-2.2-1.3h-8.2v-2.6h8.7c2.9,0,4.3,1.3,4.3,3.9
		c0,2.6-1.4,3.9-4.3,3.9h-0.8l6.1,5.2h-4L251.4,422.9z"/>
	<rect x="264.9" y="415.1" class="st0" width="13" height="2.6"/>
	<rect x="264.9" y="425.5" class="st0" width="13" height="2.6"/>
	<rect x="264.9" y="420.3" class="st0" width="13" height="2.6"/>
	<path class="st0" d="M295.3,421.2v6.9h-8.7c-2.9,0-4.3-1.4-4.3-4.3v-4.3c0-2.9,1.4-4.3,4.3-4.3h8.7v2.6H287c-1.4,0-2.1,0.7-2.1,2.1
		v3.6c0,1.4,0.7,2.1,2.1,2.1h5.7v-4.3H295.3z"/>
	<rect x="299.7" y="415.1" class="st0" width="13" height="2.6"/>
	<rect x="299.7" y="420.3" class="st0" width="13" height="2.6"/>
	<rect x="299.7" y="425.5" class="st0" width="13" height="2.6"/>
	<path class="st0" d="M319.7,419v9.1H317v-13h2.7l7.8,9.1v-9.1h2.6v13h-2.6L319.7,419z"/>
	<path class="st0" d="M339.6,417.7h-5.2l0-2.6h13v2.6h-5.2v10.4h-2.6V417.7z"/>
</g>
</svg>
