<?xml version="1.0" encoding="utf-8"?>
<!-- Generator: Adobe Illustrator 19.1.0, SVG Export Plug-In . SVG Version: 6.00 Build 0)  -->
<svg version="1.1" id="Lager_1" xmlns="http://www.w3.org/2000/svg" xmlns:xlink="http://www.w3.org/1999/xlink" x="0px" y="0px"
	 viewBox="275 397 48 58" xml:space="preserve">
<style type="text/css">
	.st0{fill:#47C1EE;}
	.st1{fill:#DDDDF0;}
</style>
<path class="st0" d="M297.5,402c-7.6,0-14.2,4.4-17.4,10.8h6.9l0.8,0h0.2l2.2,0l0,0h7c4.7,0,8.5,3.8,8.5,8.5c0,1.7-0.5,3.2-1.3,4.5
	c-0.7,1.2-1.7,2.1-2.9,2.8l1.8,2l1.1,1.2c0,0,0,0,0,0c0.2-0.1,0.4-0.3,0.6-0.4l0,0l0,0c0.2-0.1,0.4-0.3,0.5-0.4c0,0,0,0,0.1-0.1
	c2.9-2.4,4.5-6,4.5-9.8c0-3.4-1.3-6.7-3.8-9.1c-0.3-0.3-0.7-0.6-1-0.9c-0.2-0.1-0.3-0.3-0.5-0.4c-0.2-0.1-0.3-0.2-0.5-0.4
	c-0.2-0.1-0.4-0.2-0.5-0.3c-0.1-0.1-0.2-0.1-0.3-0.2c-0.1-0.1-0.2-0.1-0.3-0.1c-0.1,0-0.1-0.1-0.2-0.1c-0.1,0-0.1-0.1-0.2-0.1
	c0,0,0,0,0,0c-0.1-0.1-0.2-0.1-0.3-0.2c0,0,0,0-0.1,0c-0.2-0.1-0.4-0.2-0.6-0.2c-0.1,0-0.1,0-0.2-0.1c-0.1,0-0.2-0.1-0.3-0.1
	c-0.2-0.1-0.3-0.1-0.5-0.2c-0.1,0-0.3-0.1-0.4-0.1c-0.1,0-0.1,0-0.2-0.1c-0.1,0-0.3-0.1-0.4-0.1c-0.1,0-0.2,0-0.3-0.1
	c-0.2,0-0.3-0.1-0.5-0.1c-0.2,0-0.4,0-0.5-0.1c-0.1,0-0.1,0-0.2,0c0,0,0,0,0,0c-0.2,0-0.3,0-0.5,0h0c-0.2,0-0.4,0-0.6,0h0
	c-0.2,0-0.4,0-0.6,0h0c-0.2,0-0.3,0-0.5,0c0,0,0,0,0,0c-0.1,0-0.1,0-0.2,0c-0.2,0-0.3,0-0.5,0.1c-0.2,0-0.3,0.1-0.5,0.1
	c-0.1,0-0.2,0-0.3,0.1c-0.1,0-0.2,0.1-0.4,0.1c-0.1,0-0.2,0-0.2,0.1c-0.1,0-0.2,0.1-0.4,0.1c-0.2,0.1-0.4,0.1-0.5,0.2
	c-0.1,0-0.2,0.1-0.3,0.1c-0.1,0-0.1,0-0.2,0.1c-0.2,0.1-0.4,0.2-0.6,0.2c0,0,0,0-0.1,0c-0.1,0-0.2,0.1-0.3,0.2
	c-0.1,0.1-0.2,0.1-0.3,0.2c-0.2,0.1-0.4,0.2-0.6,0.3c-0.2,0.1-0.4,0.2-0.5,0.3c-0.2,0.1-0.3,0.2-0.5,0.4c-0.1,0.1-0.2,0.2-0.4,0.3
	l-4.6,0c0.1-0.1,0.2-0.3,0.3-0.4c0.1-0.1,0.2-0.2,0.3-0.3c0.1-0.1,0.2-0.2,0.3-0.3c0.1-0.1,0.2-0.2,0.3-0.3c0.2-0.2,0.4-0.4,0.6-0.5
	c0.1-0.1,0.2-0.2,0.3-0.3c0.1-0.1,0.2-0.2,0.3-0.2c0.4-0.3,0.8-0.6,1.2-0.9c0.1-0.1,0.2-0.2,0.4-0.2c0.3-0.2,0.7-0.4,1-0.6
	c0.1-0.1,0.2-0.1,0.3-0.2c0.5-0.2,0.9-0.5,1.4-0.6c0.1,0,0.2-0.1,0.2-0.1c0.3-0.1,0.6-0.2,0.9-0.3c0.1,0,0.2-0.1,0.3-0.1
	c0.1,0,0.2-0.1,0.3-0.1c0.1,0,0.3-0.1,0.4-0.1c0.1,0,0.3-0.1,0.4-0.1c0.4-0.1,0.9-0.2,1.3-0.2c0.1,0,0.2,0,0.4,0c0.1,0,0.3,0,0.4,0
	c0.1,0,0.2,0,0.3,0c0.1,0,0.3,0,0.5,0c0.2,0,0.3,0,0.5,0c0,0,0,0,0,0h0c0.2,0,0.3,0,0.5,0c0.2,0,0.3,0,0.5,0c0.1,0,0.2,0,0.3,0
	c0.1,0,0.3,0,0.4,0c0.1,0,0.2,0,0.4,0c0.4,0.1,0.9,0.1,1.3,0.2c0.1,0,0.3,0.1,0.4,0.1c0.2,0,0.3,0.1,0.4,0.1c0.1,0,0.2,0,0.3,0.1
	c0.1,0,0.2,0.1,0.3,0.1c0.3,0.1,0.6,0.2,0.9,0.3c0.1,0,0.2,0.1,0.2,0.1c0.5,0.2,1,0.4,1.4,0.6c0.1,0.1,0.2,0.1,0.3,0.2
	c0.1,0.1,0.2,0.1,0.3,0.2c0.1,0.1,0.2,0.1,0.3,0.2c0.3,0.2,0.6,0.4,1,0.6l0.3,0.2c0.1,0.1,0.2,0.2,0.4,0.3c0.1,0.1,0.2,0.1,0.3,0.2
	c0.4,0.3,0.8,0.7,1.1,1c0.1,0.1,0.2,0.2,0.3,0.3c0.1,0.1,0.2,0.2,0.3,0.3c0.1,0.1,0.2,0.2,0.3,0.3c0.2,0.2,0.3,0.3,0.4,0.5
	c2.2,2.7,3.5,6.2,3.5,10c0,4.7-2,9-5.3,11.9c-0.2,0.1-0.3,0.3-0.5,0.4c-0.2,0.2-0.5,0.4-0.7,0.5c-0.1,0.1-0.2,0.2-0.3,0.2l2.2,2.4
	c4.8-3.5,7.8-9.2,7.8-15.5C316.8,410.7,308.2,402,297.5,402z"/>
<path class="st1" d="M296.5,429.9l-1.9-2.1l-0.2-0.2l-2.1-2.3h5c2,0,3.6-1.5,3.9-3.3c0-0.2,0-0.4,0-0.6c0-2-1.4-3.6-3.3-3.9
	c-0.2,0-0.4,0-0.6,0h-7.6h-1.1v0h-3.2h-0.1c0,0,0,0.1,0,0.1c0,0,0,0.1,0,0.1c0,0.1-0.1,0.2-0.1,0.3c0,0.1,0,0.1-0.1,0.2
	c0,0.1-0.1,0.3-0.1,0.4c0,0.1,0,0.1,0,0.2c0,0.2-0.1,0.4-0.1,0.6c0,0.1,0,0.3-0.1,0.4c0,0.1,0,0.2,0,0.3c0,0.2,0,0.3,0,0.5
	c0,0.2,0,0.4,0,0.6c0,0.1,0,0.3,0,0.4c0,0.1,0,0.2,0,0.2c0,0.1,0,0.3,0,0.4c0,0.1,0,0.3,0,0.4c0,0.1,0,0.2,0,0.4c0,0.1,0,0.1,0,0.2
	c0,0.2,0.1,0.5,0.1,0.7c0,0.1,0,0.2,0.1,0.3c0,0,0,0,0,0c0.1,0.3,0.2,0.7,0.3,1c0.1,0.3,0.2,0.6,0.4,1c0.1,0.2,0.2,0.4,0.3,0.6
	c0.2,0.3,0.3,0.6,0.5,0.9c0.1,0.1,0.1,0.2,0.2,0.3c0.1,0.1,0.1,0.2,0.2,0.3c0.1,0.2,0.3,0.4,0.4,0.6c0.1,0.1,0.1,0.2,0.2,0.3
	c0.2,0.3,0.5,0.6,0.8,0.9c0,0.1,0.1,0.1,0.1,0.2c0.2,0.2,0.5,0.5,0.8,0.7c0,0,0,0,0.1,0.1c0.2,0.1,0.3,0.3,0.4,0.4
	c0,0,0.1,0,0.1,0.1l0,0l0,0c0.1,0.1,0.1,0.1,0.2,0.2c0.1,0,0.1,0.1,0.2,0.1c0.1,0.1,0.2,0.1,0.2,0.2c0,0,0.1,0,0.1,0.1
	c0.1,0,0.1,0.1,0.2,0.1c0.1,0,0.1,0.1,0.2,0.1c0,0,0,0,0,0c0.1,0.1,0.2,0.1,0.3,0.1c1.9,1.1,4.1,1.7,6.4,1.7c0.2,0,0.5,0,0.7,0
	l2.6,2.8c-1.1,0.2-2.2,0.4-3.4,0.4c-1.8,0-3.5-0.3-5.1-0.8c-0.2-0.1-0.4-0.1-0.6-0.2c-0.2-0.1-0.4-0.2-0.6-0.2
	c-0.4-0.2-0.8-0.4-1.2-0.6c-0.2-0.1-0.3-0.2-0.5-0.3c0,0,0,0,0,0c-0.4-0.2-0.7-0.4-1.1-0.7c-0.2-0.1-0.3-0.2-0.5-0.4
	c-0.1-0.1-0.2-0.2-0.3-0.2c-0.1-0.1-0.3-0.2-0.4-0.3c-0.2-0.1-0.3-0.3-0.5-0.4c-0.4-0.4-0.8-0.7-1.1-1.1c-0.1-0.1-0.2-0.2-0.3-0.3
	c-0.1-0.1-0.2-0.3-0.3-0.4c-0.1-0.1-0.2-0.2-0.3-0.3c-0.2-0.2-0.3-0.5-0.5-0.7c-0.1-0.1-0.1-0.2-0.2-0.3c-0.1-0.1-0.1-0.2-0.2-0.3
	c-0.1-0.1-0.1-0.2-0.2-0.4c-0.1-0.2-0.2-0.3-0.3-0.5c-0.1-0.1-0.1-0.2-0.1-0.3c-0.1-0.2-0.2-0.5-0.3-0.7c-0.1-0.3-0.3-0.6-0.4-1
	c-0.2-0.4-0.3-0.8-0.4-1.2c0-0.1-0.1-0.2-0.1-0.3c0-0.1,0-0.1-0.1-0.2c0-0.1-0.1-0.3-0.1-0.4c0-0.1-0.1-0.2-0.1-0.4
	c0-0.1,0-0.2,0-0.2c0-0.1,0-0.2-0.1-0.4c0-0.1,0-0.3-0.1-0.4c0-0.1,0-0.3,0-0.4c0-0.1,0-0.3,0-0.4c0-0.4,0-0.8,0-1.2
	c0-0.2,0-0.4,0-0.6c0-0.2,0-0.4,0-0.6c0-0.2,0-0.4,0.1-0.6c0-0.2,0-0.4,0.1-0.6c0-0.1,0-0.2,0-0.3c0-0.1,0-0.3,0.1-0.4
	c0-0.1,0-0.2,0.1-0.4c0,0,0,0,0-0.1c0-0.1,0.1-0.3,0.1-0.4h-3.3c-0.2,1.2-0.4,2.5-0.4,3.8c0,10.7,8.6,19.3,19.3,19.3
	c2.7,0,5.2-0.5,7.5-1.5l-4.8-5.2L296.5,429.9z"/>
</svg>
