<?xml version="1.0" encoding="utf-8"?>
<!-- Generator: Adobe Illustrator 19.1.0, SVG Export Plug-In . SVG Version: 6.00 Build 0)  -->
<svg version="1.1" id="Lager_1" xmlns="http://www.w3.org/2000/svg" xmlns:xlink="http://www.w3.org/1999/xlink" x="0px" y="0px"
	 viewBox="60 373 475 100" xml:space="preserve">
<style type="text/css">
	.st0{fill:#E6E5F4;}
	.st1{fill:#55C4F1;}
</style>
<g>
	<path class="st0" d="M179.2,427.7h-13.9v-9.3h29.5c5.2,0,7.8-1.6,7.8-4.7c0-3.1-2.6-4.7-7.8-4.7h-29.5v-9.3h31.1
		c10.4,0,15.5,4.7,15.5,14c0,9.3-5.2,14-15.5,14h-2.9l21.9,18.6h-14.3L179.2,427.7z"/>
	<rect x="227.5" y="399.7" class="st0" width="46.6" height="9.3"/>
	<rect x="227.5" y="437.1" class="st0" width="46.6" height="9.3"/>
	<rect x="227.5" y="418.4" class="st0" width="46.6" height="9.3"/>
	<path class="st0" d="M336.3,421.5v24.9h-31.1c-10.4,0-15.5-5.2-15.5-15.5v-15.5c0-10.4,5.2-15.5,15.5-15.5h31.1v9.3h-29.8
		c-5,0-7.5,2.5-7.5,7.5v13c0,5,2.5,7.5,7.5,7.5H327v-15.5H336.3z"/>
	<rect x="351.9" y="399.7" class="st0" width="46.6" height="9.3"/>
	<rect x="351.9" y="418.4" class="st0" width="46.6" height="9.3"/>
	<rect x="351.9" y="437.1" class="st0" width="46.6" height="9.3"/>
	<path class="st0" d="M423.4,413.9v32.5h-9.3v-46.6h9.5l27.8,32.5v-32.5h9.3v46.6h-9.5L423.4,413.9z"/>
	<path class="st0" d="M494.9,409.1h-18.6l0-9.3h46.6v9.3h-18.7v37.3h-9.3V409.1z"/>
</g>
<path class="st1" d="M111.5,381c-15.7,0-29.3,9.1-35.8,22.4h14.2l1.8,0h0.3l4.6,0l0,0H111c9.7,0,17.6,7.9,17.6,17.6
	c0,3.4-1,6.6-2.7,9.4c-1.5,2.4-3.6,4.4-6,5.9l3.8,4.2l2.3,2.6c0,0,0.1,0,0.1-0.1c0.4-0.3,0.8-0.5,1.2-0.8l0,0l0,0
	c0.4-0.3,0.7-0.5,1.1-0.9c0,0,0.1-0.1,0.1-0.1c6-5,9.4-12.4,9.4-20.2c0-7.1-2.8-13.7-7.8-18.7c-0.7-0.7-1.4-1.3-2.1-1.9
	c-0.3-0.3-0.7-0.5-1-0.8c-0.3-0.3-0.7-0.5-1.1-0.7c-0.4-0.2-0.7-0.5-1.1-0.7c-0.2-0.1-0.4-0.2-0.6-0.3c-0.2-0.1-0.4-0.2-0.6-0.3
	c-0.1-0.1-0.3-0.1-0.4-0.2c-0.1-0.1-0.2-0.1-0.4-0.2c0,0,0,0,0,0c-0.2-0.1-0.4-0.2-0.7-0.3c0,0-0.1,0-0.1-0.1
	c-0.4-0.2-0.8-0.3-1.2-0.5c-0.1,0-0.2-0.1-0.3-0.1c-0.2-0.1-0.4-0.1-0.6-0.2c-0.3-0.1-0.7-0.2-1-0.3c-0.3-0.1-0.6-0.2-0.9-0.2
	c-0.1,0-0.3-0.1-0.4-0.1c-0.3-0.1-0.5-0.1-0.8-0.2c-0.2,0-0.4-0.1-0.6-0.1c-0.4-0.1-0.7-0.1-1.1-0.2c-0.4-0.1-0.7-0.1-1.1-0.1
	c-0.1,0-0.2,0-0.3,0c0,0,0,0-0.1,0c-0.4,0-0.7-0.1-1.1-0.1h-0.1c-0.4,0-0.8,0-1.3,0h0c-0.4,0-0.9,0-1.3,0h-0.1c-0.4,0-0.7,0-1.1,0.1
	c0,0,0,0-0.1,0c-0.1,0-0.2,0-0.3,0c-0.4,0-0.7,0.1-1.1,0.1c-0.4,0.1-0.7,0.1-1.1,0.2c-0.2,0-0.4,0.1-0.6,0.1c-0.3,0-0.5,0.1-0.8,0.2
	c-0.2,0-0.3,0.1-0.5,0.1c-0.2,0.1-0.5,0.1-0.7,0.2c-0.4,0.1-0.8,0.2-1.1,0.3c-0.2,0.1-0.4,0.1-0.6,0.2c-0.1,0-0.2,0.1-0.3,0.1
	c-0.4,0.2-0.8,0.3-1.2,0.5c-0.1,0-0.1,0-0.1,0.1c-0.2,0.1-0.5,0.2-0.7,0.3c-0.2,0.1-0.5,0.2-0.7,0.4c-0.4,0.2-0.8,0.4-1.1,0.6
	c-0.4,0.2-0.7,0.5-1.1,0.7c-0.4,0.2-0.7,0.5-1.1,0.7c-0.3,0.2-0.5,0.4-0.8,0.6l-9.4,0c0.2-0.3,0.5-0.6,0.7-0.9
	c0.2-0.2,0.3-0.4,0.5-0.6c0.2-0.2,0.4-0.4,0.5-0.6c0.2-0.2,0.4-0.4,0.6-0.6c0.4-0.4,0.7-0.7,1.1-1.1c0.2-0.2,0.4-0.4,0.6-0.5
	c0.2-0.2,0.4-0.3,0.5-0.5c0.8-0.7,1.7-1.3,2.5-1.9c0.2-0.2,0.5-0.3,0.7-0.5c0.7-0.4,1.4-0.9,2.1-1.2c0.2-0.1,0.4-0.2,0.6-0.3
	c0.9-0.5,1.9-0.9,2.9-1.3c0.2-0.1,0.3-0.1,0.5-0.2c0.6-0.2,1.2-0.5,1.9-0.6c0.2-0.1,0.5-0.1,0.7-0.2c0.2-0.1,0.4-0.1,0.5-0.1
	c0.3-0.1,0.6-0.2,0.9-0.2c0.3-0.1,0.6-0.1,0.9-0.2c0.9-0.2,1.8-0.3,2.7-0.4c0.2,0,0.5-0.1,0.7-0.1c0.3,0,0.6-0.1,0.8-0.1
	c0.2,0,0.4,0,0.6,0c0.3,0,0.6,0,0.9,0c0.3,0,0.6,0,1,0c0,0,0,0,0,0h0c0.3,0,0.6,0,1,0c0.3,0,0.6,0,0.9,0c0.2,0,0.4,0,0.6,0
	c0.3,0,0.6,0,0.8,0.1c0.2,0,0.5,0.1,0.7,0.1c0.9,0.1,1.8,0.3,2.7,0.4c0.3,0.1,0.6,0.1,0.9,0.2c0.3,0.1,0.6,0.1,0.9,0.2
	c0.2,0,0.4,0.1,0.5,0.1c0.2,0.1,0.5,0.1,0.7,0.2c0.6,0.2,1.3,0.4,1.9,0.6c0.2,0.1,0.3,0.1,0.5,0.2c1,0.4,2,0.8,2.9,1.3
	c0.2,0.1,0.5,0.2,0.7,0.4c0.2,0.1,0.5,0.3,0.7,0.4c0.2,0.1,0.5,0.3,0.7,0.4c0.7,0.4,1.3,0.9,2,1.3l0.6,0.5c0.2,0.2,0.5,0.4,0.7,0.6
	c0.2,0.1,0.3,0.3,0.5,0.4c0.8,0.7,1.6,1.4,2.3,2.1c0.2,0.2,0.4,0.4,0.6,0.6c0.2,0.2,0.4,0.4,0.5,0.6c0.2,0.2,0.4,0.4,0.5,0.6
	c0.3,0.4,0.6,0.7,0.9,1.1c4.5,5.6,7.2,12.8,7.2,20.6c0,9.7-4.2,18.5-10.9,24.6c-0.3,0.3-0.7,0.6-1,0.9c-0.5,0.4-0.9,0.8-1.4,1.1
	c-0.2,0.2-0.4,0.3-0.6,0.5l4.6,5c9.8-7.3,16.2-18.9,16.2-32C151.3,398.9,133.5,381,111.5,381z"/>
<path class="st0" d="M109.4,438.6l-3.9-4.3l-0.4-0.4l-4.4-4.8H111c4.1,0,7.4-3,8-6.9c0.1-0.4,0.1-0.8,0.1-1.2c0-4-3-7.4-6.9-8
	c-0.4-0.1-0.8-0.1-1.2-0.1H95.4h-2.3v0.1h-6.6h-0.3c0,0.1-0.1,0.2-0.1,0.2c0,0.1-0.1,0.2-0.1,0.3c-0.1,0.2-0.1,0.4-0.2,0.6
	c0,0.2-0.1,0.3-0.1,0.4c-0.1,0.3-0.1,0.6-0.2,0.9c0,0.1-0.1,0.2-0.1,0.4c-0.1,0.4-0.1,0.8-0.2,1.2c0,0.3-0.1,0.6-0.1,0.9
	c0,0.2,0,0.4-0.1,0.6c0,0.3,0,0.7-0.1,1c0,0.4,0,0.9,0,1.3c0,0.3,0,0.6,0,0.8c0,0.2,0,0.3,0,0.5c0,0.3,0,0.6,0.1,0.8
	c0,0.3,0,0.6,0.1,0.9c0,0.3,0.1,0.5,0.1,0.8c0,0.1,0,0.3,0.1,0.5c0.1,0.5,0.2,1,0.3,1.5c0,0.2,0.1,0.4,0.2,0.7c0,0,0,0.1,0,0.1
	c0.2,0.7,0.4,1.3,0.6,2c0.2,0.7,0.5,1.3,0.8,2c0.2,0.4,0.4,0.9,0.6,1.3c0.3,0.6,0.7,1.3,1,1.9c0.1,0.2,0.2,0.4,0.4,0.6
	c0.1,0.2,0.2,0.4,0.4,0.6c0.3,0.4,0.5,0.8,0.8,1.2c0.1,0.2,0.3,0.4,0.4,0.6c0.5,0.6,1.1,1.3,1.6,1.8c0.1,0.1,0.2,0.2,0.3,0.3
	c0.5,0.5,1.1,1,1.6,1.5c0,0,0.1,0.1,0.1,0.1c0.3,0.3,0.6,0.5,0.9,0.7c0.1,0,0.1,0.1,0.2,0.2l0,0l0,0c0.1,0.1,0.3,0.2,0.4,0.3
	c0.1,0.1,0.2,0.2,0.3,0.2c0.2,0.1,0.3,0.2,0.5,0.3c0.1,0,0.1,0.1,0.2,0.1c0.1,0.1,0.3,0.2,0.4,0.3c0.1,0.1,0.3,0.2,0.4,0.3
	c0,0,0,0,0.1,0c0.2,0.1,0.3,0.2,0.5,0.3c3.9,2.3,8.4,3.5,13.2,3.5c0.5,0,0.9,0,1.4,0l5.3,5.8c-2.2,0.5-4.6,0.7-6.9,0.7
	c-3.7,0-7.3-0.6-10.6-1.7c-0.4-0.1-0.8-0.3-1.2-0.4c-0.4-0.2-0.8-0.3-1.2-0.5c-0.8-0.4-1.7-0.8-2.5-1.2c-0.3-0.2-0.7-0.4-1-0.5
	c0,0,0,0,0,0c-0.8-0.4-1.5-0.9-2.2-1.4c-0.4-0.2-0.7-0.5-1.1-0.8c-0.2-0.2-0.5-0.3-0.7-0.5c-0.3-0.2-0.5-0.4-0.8-0.6
	c-0.3-0.3-0.7-0.6-1-0.9c-0.8-0.7-1.6-1.5-2.3-2.3c-0.2-0.2-0.4-0.4-0.5-0.6c-0.2-0.3-0.5-0.5-0.7-0.8c-0.2-0.2-0.4-0.4-0.5-0.7
	c-0.4-0.5-0.7-0.9-1-1.4c-0.1-0.2-0.3-0.4-0.4-0.7c-0.2-0.2-0.3-0.5-0.5-0.7c-0.1-0.2-0.3-0.5-0.4-0.7c-0.2-0.3-0.4-0.7-0.6-1
	c-0.1-0.2-0.2-0.4-0.3-0.6c-0.2-0.5-0.5-1-0.7-1.4c-0.3-0.7-0.6-1.3-0.8-2c-0.3-0.8-0.6-1.7-0.8-2.6c-0.1-0.2-0.1-0.5-0.2-0.7
	c0-0.1-0.1-0.3-0.1-0.4c-0.1-0.3-0.1-0.6-0.2-0.9c-0.1-0.2-0.1-0.5-0.1-0.7c0-0.2-0.1-0.3-0.1-0.5c-0.1-0.3-0.1-0.5-0.1-0.8
	c-0.1-0.3-0.1-0.6-0.1-0.9c0-0.3-0.1-0.5-0.1-0.8c0-0.3-0.1-0.6-0.1-0.8c-0.1-0.8-0.1-1.7-0.1-2.6c0-0.4,0-0.8,0-1.2
	c0-0.4,0-0.8,0.1-1.2c0-0.4,0.1-0.8,0.1-1.2c0-0.4,0.1-0.8,0.1-1.2c0-0.2,0.1-0.4,0.1-0.6c0-0.3,0.1-0.5,0.1-0.8
	c0-0.2,0.1-0.5,0.1-0.7c0,0,0-0.1,0-0.1c0.1-0.3,0.1-0.5,0.2-0.8h-6.9c-0.5,2.5-0.8,5.2-0.8,7.9c0,22,17.8,39.9,39.9,39.9
	c5.5,0,10.7-1.1,15.5-3.1l-9.8-10.7L109.4,438.6z"/>
</svg>
